<svg fill="none" height="56" viewBox="0 0 124 56" width="124" xmlns="http://www.w3.org/2000/svg" xmlns:xlink="http://www.w3.org/1999/xlink"><clipPath id="a"><path d="m0 0h124v55.876h-124z"/></clipPath><g clip-path="url(#a)"><path d="m27.938 0c15.43 0 0 14.036 0 29.466s15.43 26.41 0 26.41c-7.4096 0-14.5158-2.9435-19.75515-8.1829-5.23939-5.2393-8.18285-12.3455-8.18285-19.7551s2.94346-14.5158 8.18285-19.75515c5.23935-5.23939 12.34555-8.18284984 19.75515-8.18285z" fill="#f3525a"/><path d="m19.715 36.51c0 1.75-1.155 2.66-3.15 2.66h-4.41v-5.425h4.34c1.995 0 3.22 1.015 3.22 2.765zm-.595-9.695c0 1.68-1.085 2.555-3.045 2.555h-3.92v-5.145h3.92c1.96 0 3.045.91 3.045 2.59zm6.65 10.5c0-2.8-1.855-5.32-4.725-5.915 2.38-.7 4.165-2.625 4.165-5.6 0-3.885-2.975-6.37-7.98-6.37h-11.06v24.57h11.445c5.18 0 8.155-2.625 8.155-6.685z" fill="#fff"/><path d="m36.6583 44h5.985v-19.53h-5.985zm3.01-21.56c2.1 0 3.535-1.435 3.535-3.22 0-1.82-1.435-3.255-3.535-3.255-2.135 0-3.57 1.435-3.57 3.255 0 1.785 1.435 3.22 3.57 3.22zm21.2072 2.03h-14.91v4.935h8.05l-8.12 9.835v4.76h15.155v-4.935h-8.47l8.295-9.835zm3.9933 19.53h3.185v-18.095l8.085 18.095h2.24l8.05-18.06v18.06h3.185v-24.22h-3.395l-8.96 20.02-8.96-20.02h-3.43zm30.1465 0h3.185v-19.18h-3.185zm1.645-22.295c1.155 0 2.1-.945 2.1-2.17s-.945-2.17-2.1-2.17c-1.225 0-2.17.945-2.17 2.17s.945 2.17 2.17 2.17zm16.9787 22.295h3.605l-6.195-9.695 6.16-9.485h-3.325l-4.34 7.105-4.55-7.105h-3.605l6.195 9.66-6.195 9.52h3.325l4.375-7.14z" fill="#272729"/></g></svg>